<svg width="381" height="298" viewBox="0 0 381 298" fill="none" xmlns="http://www.w3.org/2000/svg">
<path d="M283.9 101.798L203.29 2.3081C199.72 -2.1019 192.59 0.458103 192.63 6.1281L193.95 181.688C194 187.788 202.03 189.918 205.13 184.668C208.94 178.208 213.39 171.478 218.47 164.728C236.84 140.278 258.84 121.698 281.77 111.008C285.31 109.358 286.37 104.828 283.91 101.798H283.9Z" fill="#333333"/>
<path d="M295.54 116.158C293.87 114.098 291.04 113.358 288.59 114.378C257.32 127.398 234.57 153.048 223.15 168.248C207.93 188.498 198.41 208.658 195.37 221.228C194.46 225.008 197.32 228.628 201.21 228.628H374.09C379.14 228.628 381.93 222.778 378.75 218.848L295.54 116.158Z" fill="#333333"/>
<path d="M186.5 111.178C186.89 112.798 187.25 114.438 187.6 116.098L186.77 5.9681C186.73 0.3081 179.6 -2.1519 176.07 2.2781L146.87 39.0081C144.82 41.5881 145.23 45.3381 147.79 47.3981C167.73 63.4281 179.9 83.6481 186.5 111.178Z" fill="#333333"/>
<path d="M135.74 52.9981L98.68 99.6081C96.09 102.868 97.51 107.718 101.47 109.028C117.58 114.358 136.43 123.918 153.07 138.728C160.7 145.518 168.93 154.418 175.98 165.618C179.26 170.828 187.32 168.218 187.02 162.068C184.61 112.778 175.86 77.6981 144.25 52.0881C141.65 49.9781 137.83 50.3681 135.74 52.9981Z" fill="#333333"/>
<path d="M149.17 143.108C130.81 126.758 109.7 117.088 93.0199 112.598C90.6899 111.968 88.2199 112.758 86.7199 114.648L3.8299 218.898C0.699896 222.828 3.4999 228.628 8.5299 228.628H181.78C185.22 228.628 187.95 225.738 187.78 222.308C185.81 183.698 165.96 158.058 149.17 143.108Z" fill="#333333"/>
<path d="M369.332 284.842C366.028 284.842 363.34 283.778 361.492 281.762V284.338H357.852V242.898H361.492V258.634C363.34 256.618 366.028 255.554 369.332 255.554C376.332 255.554 380.756 259.754 380.756 267.37V273.026C380.756 280.642 376.332 284.842 369.332 284.842ZM361.492 273.026C361.492 279.242 364.852 281.426 369.332 281.426C374.036 281.426 377.116 279.242 377.116 273.026V267.37C377.116 261.546 374.036 258.97 369.332 258.97C364.852 258.97 361.492 261.546 361.492 267.37V273.026Z" fill="#333333"/>
<path d="M336.192 284.842C329.192 284.842 324.768 280.642 324.768 273.026V267.37C324.768 259.754 329.192 255.554 336.192 255.554C339.496 255.554 342.184 256.618 344.032 258.634V256.058H347.672V284.338H344.032V281.762C342.184 283.778 339.496 284.842 336.192 284.842ZM328.408 273.026C328.408 279.242 331.488 281.426 336.192 281.426C340.728 281.426 344.032 279.242 344.032 273.026V267.37C344.032 261.546 340.728 258.97 336.192 258.97C331.488 258.97 328.408 261.546 328.408 267.37V273.026Z" fill="#333333"/>
<path d="M297.873 284.338V245.138H301.681V280.698H319.881V284.338H297.873Z" fill="#333333"/>
<path d="M260.426 282.938L267.146 254.882H275.154L264.01 297.162H256.338L260.09 284.338H253.314L245.698 254.882H253.706L260.426 282.938Z" fill="#333333"/>
<path d="M230.058 284.842C222.554 284.842 217.122 280.25 217.122 272.634V266.586C217.122 258.97 222.554 254.378 230.058 254.378C237.73 254.378 242.49 258.522 242.882 265.41H235.826C235.602 262.722 233.754 261.098 230.058 261.098C226.474 261.098 224.122 263.226 224.122 266.586V272.634C224.122 276.554 226.474 278.122 230.058 278.122C233.866 278.122 235.714 276.834 235.882 273.754H242.882C242.49 280.698 237.73 284.842 230.058 284.842Z" fill="#333333"/>
<path d="M187.55 284.338V254.882H194.55V256.394C195.782 255.442 197.854 254.378 201.438 254.378C207.766 254.378 212.638 258.186 212.638 264.738V284.338H205.638V266.194C205.638 263.618 204.238 261.098 200.038 261.098C196.678 261.098 194.55 263.226 194.55 266.194V284.338H187.55Z" fill="#333333"/>
<path d="M169.629 284.842C162.125 284.842 156.693 280.25 156.693 272.634V266.586C156.693 258.97 162.125 254.378 169.629 254.378C177.133 254.378 182.509 258.97 182.509 266.586V272.466H163.525V272.97C163.525 277.058 166.045 278.682 169.629 278.682C172.653 278.682 175.061 277.394 175.341 275.154H182.397C181.725 281.258 176.573 284.842 169.629 284.842ZM163.525 266.978H175.677V265.914C175.677 262.89 173.213 260.706 169.629 260.706C166.045 260.706 163.525 262.61 163.525 265.914V266.978Z" fill="#333333"/>
<path d="M145.21 284.338V254.882H152.21V284.338H145.21ZM145.154 249.226V241.498H152.21V249.226H145.154Z" fill="#333333"/>
<path d="M127.847 284.842C120.343 284.842 114.911 280.25 114.911 272.634V266.586C114.911 258.97 120.343 254.378 127.847 254.378C135.519 254.378 140.28 258.522 140.672 265.41H133.616C133.392 262.722 131.543 261.098 127.847 261.098C124.263 261.098 121.911 263.226 121.911 266.586V272.634C121.911 276.554 124.263 278.122 127.847 278.122C131.655 278.122 133.504 276.834 133.672 273.754H140.672C140.28 280.698 135.519 284.842 127.847 284.842Z" fill="#333333"/>
<path d="M103.428 284.338V254.882H110.428V284.338H103.428ZM103.372 249.226V241.498H110.428V249.226H103.372Z" fill="#333333"/>
<path d="M86.3704 284.338V261.042H82.1144V254.882H86.3704V251.466C86.3704 246.146 90.1224 242.898 95.2184 242.898H99.7544V249.338H93.3704V254.882H99.5864V261.042H93.3704V284.338H86.3704Z" fill="#333333"/>
<path d="M66.7923 284.338V261.042H62.5363V254.882H66.7923V251.466C66.7923 246.146 70.5443 242.898 75.6403 242.898H80.1763V249.338H73.7923V254.882H80.0083V261.042H73.7923V284.338H66.7923Z" fill="#333333"/>
<path d="M52.713 273.25V254.882H59.713V274.034C59.713 280.586 55.065 284.842 47.281 284.842C39.497 284.842 34.849 280.586 34.849 274.034V254.882H41.849V273.25C41.849 276.946 44.033 278.402 47.281 278.402C50.529 278.402 52.713 276.946 52.713 273.25Z" fill="#333333"/>
<path d="M15.4 284.842C5.88 284.842 0.224 279.13 0 271.178H7.504C7.728 275.042 10.584 277.842 15.4 277.842C20.72 277.842 23.016 275.658 23.016 273.25C23.016 270.786 21.448 269.498 18.536 268.714L12.096 266.978C6.16 265.354 1.96 262.442 1.96 256.17C1.96 249.506 7.336 244.634 15.96 244.634C24.976 244.634 30.464 250.402 30.576 257.346H23.072C22.96 254.546 20.664 251.634 15.96 251.634C11.256 251.634 9.52 253.93 9.52 255.834C9.52 258.354 11.256 259.194 14.224 259.978L21 261.826C27.72 263.674 30.632 267.706 30.632 273.25C30.632 280.25 23.912 284.842 15.4 284.842Z" fill="#333333"/>
</svg>
