<svg width="193" height="36" viewBox="0 0 193 36" fill="none" xmlns="http://www.w3.org/2000/svg">
<path d="M64 35.2448V20H66.1997V33.3963H74.6008V35.2448H64Z" fill="white"/>
<path d="M79.7272 35.5187C78.994 35.5187 78.3231 35.3894 77.7147 35.1307C77.1063 34.8721 76.6227 34.4993 76.2638 34.0124C75.905 33.5256 75.7256 32.9398 75.7256 32.2552C75.7256 31.3575 76.0454 30.6501 76.6851 30.1328C77.3403 29.6155 78.2529 29.2199 79.423 28.9461C80.6087 28.657 81.9893 28.4288 83.565 28.2614C83.5962 27.3029 83.4012 26.565 82.98 26.0477C82.5588 25.5304 81.8801 25.2718 80.9441 25.2718C80.242 25.2718 79.6648 25.4315 79.2124 25.751C78.7756 26.0553 78.4947 26.4813 78.3699 27.029L76.4744 26.4813C76.7865 25.6141 77.3403 24.9447 78.1359 24.473C78.9472 23.9862 79.8754 23.7427 80.9207 23.7427C82.5276 23.7427 83.6976 24.1155 84.4309 24.861C85.1797 25.5913 85.5541 26.7476 85.5541 28.3299V30.9772C85.5541 31.9205 85.5931 32.7344 85.6712 33.4191C85.7492 34.1037 85.8428 34.7123 85.952 35.2448H84.1501L83.682 33.6929C83.3388 34.2559 82.8474 34.7047 82.2078 35.0394C81.5681 35.3589 80.7413 35.5187 79.7272 35.5187ZM80.1484 33.9896C80.7569 33.9896 81.3341 33.8831 81.8801 33.6701C82.4262 33.4571 82.8708 33.0996 83.214 32.5975C83.5572 32.0802 83.7288 31.3804 83.7288 30.4979V29.7905C82.5432 29.9122 81.5135 30.0643 80.6399 30.2469C79.7662 30.4142 79.0876 30.6577 78.604 30.9772C78.1359 31.2815 77.9019 31.6923 77.9019 32.2095C77.9019 32.742 78.0969 33.1757 78.4869 33.5104C78.8926 33.8299 79.4464 33.9896 80.1484 33.9896Z" fill="white"/>
<path d="M94.5253 35.5187C93.6205 35.5187 92.856 35.3437 92.232 34.9938C91.6079 34.6286 91.1165 34.1418 90.7577 33.5332L90.2429 35.2448H88.792V20H90.7577V25.7054C91.1165 25.112 91.6079 24.6404 92.232 24.2905C92.856 23.9253 93.6205 23.7427 94.5253 23.7427C95.4146 23.7427 96.2336 23.9786 96.9825 24.4502C97.7469 24.9066 98.3553 25.5761 98.8077 26.4585C99.2758 27.3257 99.5098 28.3831 99.5098 29.6307C99.5098 30.8783 99.2758 31.9433 98.8077 32.8257C98.3553 33.6929 97.7469 34.3624 96.9825 34.834C96.2336 35.2905 95.4146 35.5187 94.5253 35.5187ZM94.0105 33.8755C95.0089 33.8755 95.8046 33.5028 96.3974 32.7573C97.0058 32.0118 97.3101 30.9696 97.3101 29.6307C97.3101 28.2766 97.0058 27.2344 96.3974 26.5041C95.8046 25.7586 95.0089 25.3859 94.0105 25.3859C93.012 25.3859 92.2086 25.7586 91.6002 26.5041C91.0073 27.2344 90.7109 28.2766 90.7109 29.6307C90.7109 30.9696 91.0073 32.0118 91.6002 32.7573C92.2086 33.5028 93.012 33.8755 94.0105 33.8755Z" fill="white"/>
<path d="M68.7396 1.14111C72.9986 1.14111 74.7771 3.40044 75.1281 6.32161H70.9159C70.7287 5.02078 70.0266 4.15356 68.646 4.15356C67.6865 4.15356 67.0313 4.60999 67.0313 5.56849C67.0313 6.57264 67.7801 7.18883 70.4479 7.80501C74.0048 8.62659 75.4557 10.361 75.4557 12.7801C75.4557 15.9295 72.3668 17.527 69.114 17.527C65.0188 17.527 62.2574 15.9295 62 12.3921H66.2122C66.493 13.8755 67.7333 14.5145 68.997 14.5145C70.167 14.5145 71.0563 13.9212 71.0563 13.0539C71.0563 12.2324 70.4479 11.5249 68.4587 11.0456C64.7848 10.1556 62.6318 9.03737 62.6318 5.888C62.6318 2.85273 65.5336 1.14111 68.7396 1.14111Z" fill="white"/>
<path d="M89.5662 5.02075V17.2075H85.354V15.1535L84.2308 16.8195C83.4585 17.2759 82.5693 17.527 81.4226 17.527C78.8485 17.527 77.2806 16.112 76.9998 14.4461C76.9062 13.8299 76.8828 13.1224 76.8828 12.1411V5.02075H81.095V11.2282C81.095 11.6162 81.1184 12.278 81.1886 12.8942C81.329 14.0581 81.8906 14.7427 83.2245 14.7427C84.5584 14.7427 85.354 13.5332 85.354 11.9129V5.02075H89.5662Z" fill="white"/>
<path d="M96.8356 4.10788C96.8122 4.42739 96.8122 4.72407 96.8122 5.02075V5.11203H99.3629V7.66805H96.8122V17.2075H92.6V7.66805H91.2661V5.11203H92.6V5.02075C92.6 4.6556 92.6 4.10788 92.6234 3.6971C92.8106 1.41494 94.3083 0 98.1695 0C98.6609 0 99.1523 0.0684639 99.5736 0.182572V2.8527C98.0525 2.60166 96.9526 3.03527 96.8356 4.10788Z" fill="white"/>
<path d="M113.987 5.11203V17.2075H109.775V7.66805H105.656V17.2075H101.444V7.66805H100.11V5.11203H101.444V5.02075C101.444 4.6556 101.444 4.10788 101.467 3.6971C101.655 1.41494 103.106 0 107.669 0C108.628 0 109.12 0.0684639 109.775 0.182572V2.8527C106.616 2.67012 105.797 3.03527 105.68 4.10788C105.656 4.42739 105.656 4.72407 105.656 5.02075V5.11203H113.987Z" fill="white"/>
<path d="M122.389 4.70117C126.063 4.70117 128.309 6.93769 128.426 9.67628H124.354C124.167 8.07877 123.348 7.48541 122.295 7.48541C120.891 7.48541 120.119 8.64931 120.119 10.9999C120.119 13.6016 120.914 14.7426 122.342 14.7426C123.301 14.7426 124.097 14.058 124.331 12.7343H128.473C128.005 15.8837 125.501 17.5269 122.108 17.5269C118.527 17.5269 115.813 15.2675 115.813 11.2509C115.813 7.0518 118.715 4.70117 122.389 4.70117Z" fill="white"/>
<path d="M132.356 0.0683594C133.666 0.0683594 134.532 0.844294 134.532 2.07666C134.532 3.30903 133.666 4.08496 132.356 4.08496C131.045 4.08496 130.179 3.30903 130.179 2.07666C130.179 0.844294 131.045 0.0683594 132.356 0.0683594ZM134.462 17.2074H130.249V5.02065H134.462V17.2074Z" fill="white"/>
<path d="M149.23 10.9543C149.23 11.3194 149.206 11.7302 149.16 12.141H140.454C140.665 14.1721 141.578 14.7426 142.771 14.7426C143.965 14.7426 144.69 14.1493 144.854 13.2136H148.996C148.27 15.975 145.93 17.5269 142.724 17.5269C139.144 17.5269 136.289 15.4501 136.289 11.1597C136.289 7.59952 138.793 4.70117 142.958 4.70117C147.124 4.70117 149.23 7.80491 149.23 10.9543ZM142.748 7.48541C141.648 7.48541 140.876 8.12441 140.595 9.63064H144.83C144.596 8.19288 143.871 7.48541 142.748 7.48541Z" fill="white"/>
<path d="M163.612 8.0103C163.706 8.62649 163.729 9.33395 163.729 10.3153V17.2074H159.517V10.9999C159.517 10.6119 159.517 9.95014 159.47 9.33396C159.376 8.17006 158.721 7.48541 157.457 7.48541C156.17 7.48541 155.258 8.69495 155.258 11.4563V17.2074H151.045V5.02068H155.258V6.91487L156.381 5.40864C157.153 4.95221 158.042 4.70117 159.189 4.70117C161.763 4.70117 163.284 5.8879 163.612 8.0103Z" fill="white"/>
<path d="M171.979 4.70117C175.653 4.70117 177.9 6.93769 178.017 9.67628H173.945C173.758 8.07877 172.939 7.48541 171.886 7.48541C170.481 7.48541 169.709 8.64931 169.709 10.9999C169.709 13.6016 170.505 14.7426 171.932 14.7426C172.892 14.7426 173.687 14.058 173.921 12.7343H178.064C177.595 15.8837 175.092 17.5269 171.698 17.5269C168.118 17.5269 165.403 15.2675 165.403 11.2509C165.403 7.0518 168.305 4.70117 171.979 4.70117Z" fill="white"/>
<path d="M192.992 5.02075L188.054 17.2075C186.486 21.0643 185.129 22 182.157 22C181.478 22 180.987 21.9772 180.378 21.8859V19.2386C180.729 19.2842 181.104 19.2842 181.525 19.2842C182.508 19.2842 183.186 18.9647 183.584 18.0975L183.748 17.7552L178.576 5.02075H183.257L185.831 13.944L188.381 5.02075H192.992Z" fill="white"/>
<path d="M41.7778 16.7543L29.8602 2.44158C29.3324 1.80715 28.2783 2.17543 28.2842 2.99113L28.4794 28.2474C28.4867 29.1249 29.6739 29.4314 30.1322 28.6761C30.6955 27.7467 31.3534 26.7786 32.1044 25.8075C34.8203 22.2901 38.0728 19.6171 41.4629 18.0793C41.9862 17.8419 42.1429 17.1902 41.7793 16.7543H41.7778Z" fill="white"/>
<path d="M43.4985 18.8201C43.2517 18.5237 42.8333 18.4172 42.471 18.564C37.848 20.4371 34.4846 24.1271 32.7962 26.3138C30.5461 29.227 29.1386 32.1272 28.6892 33.9356C28.5546 34.4793 28.9775 35.0001 29.5526 35.0001H55.1116C55.8582 35.0001 56.2706 34.1585 55.8005 33.5932L43.4985 18.8201Z" fill="white"/>
<path d="M27.3771 18.1036C27.4347 18.3367 27.4879 18.5726 27.5397 18.8114L27.417 2.96795C27.4111 2.1537 26.357 1.7998 25.8351 2.4371L21.5181 7.72112C21.215 8.09229 21.2756 8.63177 21.6541 8.92812C24.6021 11.2343 26.4013 14.1431 27.3771 18.1036Z" fill="white"/>
<path d="M19.8728 9.73393L14.3937 16.4393C14.0108 16.9083 14.2208 17.606 14.8062 17.7945C17.188 18.5612 19.9748 19.9366 22.4349 22.0671C23.5629 23.044 24.7797 24.3243 25.822 25.9356C26.3069 26.6851 27.4985 26.3096 27.4541 25.4249C27.0978 18.3339 25.8042 13.2873 21.1309 9.60301C20.7465 9.29946 20.1818 9.35557 19.8728 9.73393Z" fill="white"/>
<path d="M21.8579 22.697C19.1435 20.3449 16.0226 18.9538 13.5566 18.3078C13.2121 18.2172 12.8469 18.3308 12.6252 18.6027L0.370519 33.6003C-0.0922271 34.1656 0.321731 35 1.06538 35H26.6791C27.1876 35 27.5913 34.5843 27.5661 34.0908C27.2749 28.5364 24.3402 24.8477 21.8579 22.697Z" fill="white"/>
</svg>
