<svg width="56" height="35" viewBox="0 0 56 35" fill="none" xmlns="http://www.w3.org/2000/svg">
<path d="M41.7778 16.7542L29.8602 2.44147C29.3324 1.80704 28.2783 2.17532 28.2842 2.99102L28.4794 28.2473C28.4867 29.1248 29.6739 29.4313 30.1322 28.676C30.6955 27.7466 31.3534 26.7785 32.1044 25.8074C34.8203 22.29 38.0728 19.6171 41.4629 18.0792C41.9862 17.8418 42.1429 17.1901 41.7793 16.7542H41.7778Z" fill="#333333"/>
<path d="M43.4985 18.8199C43.2517 18.5236 42.8333 18.4171 42.471 18.5639C37.848 20.4369 34.4846 24.127 32.7962 26.3137C30.5461 29.2269 29.1386 32.1271 28.6892 33.9354C28.5546 34.4792 28.9775 35 29.5526 35H55.1116C55.8582 35 56.2706 34.1584 55.8005 33.593L43.4985 18.8199Z" fill="#333333"/>
<path d="M27.3771 18.1035C27.4347 18.3366 27.4879 18.5725 27.5397 18.8113L27.417 2.96787C27.4111 2.15362 26.357 1.79972 25.8351 2.43703L21.5181 7.72105C21.215 8.09221 21.2756 8.63169 21.6541 8.92804C24.6021 11.2341 26.4013 14.143 27.3771 18.1035Z" fill="#333333"/>
<path d="M19.8728 9.73393L14.3937 16.4393C14.0108 16.9083 14.2208 17.606 14.8062 17.7945C17.188 18.5613 19.9748 19.9366 22.4349 22.0671C23.5629 23.044 24.7797 24.3243 25.822 25.9356C26.3069 26.6851 27.4985 26.3096 27.4541 25.4249C27.0978 18.334 25.8042 13.2873 21.1309 9.60302C20.7465 9.29947 20.1818 9.35557 19.8728 9.73393Z" fill="#333333"/>
<path d="M21.8579 22.6969C19.1435 20.3448 16.0226 18.9536 13.5566 18.3077C13.2121 18.2171 12.8469 18.3307 12.6252 18.6026L0.370519 33.6001C-0.0922272 34.1655 0.321731 34.9999 1.06538 34.9999H26.6791C27.1876 34.9999 27.5913 34.5841 27.5661 34.0907C27.2749 28.5362 24.3402 24.8476 21.8579 22.6969Z" fill="#333333"/>
</svg>
